<?xml version="1.0" standalone="no"?>
<!DOCTYPE svg PUBLIC "-//W3C//DTD SVG 20010904//EN"
 "http://www.w3.org/TR/2001/REC-SVG-20010904/DTD/svg10.dtd">
<svg version="1.0" xmlns="http://www.w3.org/2000/svg"
 width="700.000000pt" height="700.000000pt" viewBox="0 0 700.000000 700.000000"
 preserveAspectRatio="xMidYMid meet">
<metadata>
Created by potrace 1.14, written by Peter Selinger 2001-2017
</metadata>
<g transform="translate(0.000000,700.000000) scale(0.100000,-0.100000)"
fill="#000000" stroke="none">
<path d="M5347 6383 c-2 -2 -773 -16 -915 -16 -65 -1 -73 -3 -77 -21 -4 -21
-11 -73 -20 -151 -8 -66 -16 -128 -20 -155 -2 -14 -6 -52 -10 -85 -3 -33 -8
-71 -10 -85 -2 -14 -6 -51 -10 -83 l-5 -58 117 62 c65 34 123 65 128 69 6 4
73 40 150 80 77 40 145 76 150 80 6 4 69 38 140 75 72 37 148 78 170 90 22 12
85 46 140 75 139 73 209 111 217 119 4 3 -27 6 -68 6 -42 0 -76 -1 -77 -2z"/>
<path d="M4261 5615 c0 -31 -2 -59 -4 -63 -3 -4 -8 -43 -12 -87 -4 -44 -9 -91
-10 -105 -2 -14 -6 -56 -9 -95 -3 -38 -8 -81 -11 -95 -2 -14 -7 -54 -10 -90
-3 -36 -8 -81 -10 -100 -2 -19 -7 -69 -11 -110 -3 -41 -8 -82 -9 -91 -2 -8 -6
-49 -9 -91 -4 -41 -8 -84 -10 -94 -2 -11 -7 -55 -11 -99 -4 -44 -8 -91 -10
-105 -2 -14 -6 -54 -9 -90 -4 -36 -11 -105 -17 -155 -5 -49 -11 -115 -14 -145
-5 -55 -13 -135 -20 -200 -2 -19 -7 -60 -10 -90 -3 -30 -8 -71 -10 -90 -2 -19
-7 -66 -10 -105 -3 -38 -8 -81 -10 -95 -2 -14 -7 -54 -10 -90 -3 -36 -8 -81
-10 -100 -3 -19 -7 -63 -10 -96 -3 -34 -7 -81 -10 -105 -5 -41 -9 -83 -20
-189 -3 -25 -7 -70 -10 -100 -5 -52 -11 -108 -20 -190 -2 -19 -7 -64 -10 -100
-3 -36 -8 -81 -10 -100 -4 -39 -16 -151 -20 -190 -1 -14 -6 -56 -9 -95 -4 -38
-9 -88 -12 -110 -3 -35 -11 -108 -30 -285 -2 -25 -6 -63 -9 -85 -3 -22 -8 -71
-11 -110 -4 -38 -8 -81 -9 -95 -2 -14 -6 -56 -9 -95 -4 -38 -11 -106 -16 -150
-5 -44 -12 -109 -15 -144 -3 -35 -8 -68 -11 -73 -3 -4 -2 -8 3 -8 4 0 41 51
81 113 41 61 130 198 198 302 69 105 175 268 237 363 61 95 164 252 228 350
131 200 234 357 464 712 88 135 188 287 222 338 35 51 63 94 63 97 0 2 31 50
69 107 63 95 121 184 306 468 38 58 89 137 115 175 25 39 49 75 53 81 7 13 -4
27 -101 129 -37 39 -132 140 -212 224 -80 85 -184 195 -231 245 -48 50 -106
111 -129 136 -23 25 -78 84 -123 131 -193 203 -347 366 -377 399 -145 157
-369 390 -374 390 -2 0 -4 -25 -5 -55z"/>
<path d="M3737 2554 c-1 -1 -112 -5 -247 -8 -135 -4 -306 -9 -380 -11 -74 -3
-216 -7 -315 -10 -99 -2 -247 -7 -330 -10 -82 -2 -229 -7 -325 -10 -96 -3
-256 -7 -355 -10 -223 -7 -406 -13 -690 -20 -121 -4 -254 -8 -295 -10 -41 -2
-129 -4 -194 -5 -67 -1 -113 -6 -105 -10 8 -4 205 -87 439 -184 234 -97 434
-181 445 -186 11 -5 211 -89 445 -186 234 -96 439 -182 455 -189 120 -53 519
-215 529 -215 7 0 24 13 37 29 13 16 71 79 129 142 283 304 264 284 329 355
51 55 230 249 295 318 107 115 185 202 188 211 2 8 -47 16 -55 9z"/>
</g>
</svg>
